<?xml version="1.0" encoding="UTF-8" standalone="no"?>
<!-- Created with Inkscape (http://www.inkscape.org/) -->

<svg
   width="130.23288mm"
   height="125mm"
   viewBox="0 0 130.23288 125"
   version="1.1"
   id="svg5"
   xml:space="preserve"
   xmlns="http://www.w3.org/2000/svg"
   xmlns:svg="http://www.w3.org/2000/svg"><defs
     id="defs2" /><g
     id="layer1"
     transform="translate(0.1164305)"><rect
       style="fill:#245137;fill-opacity:1;stroke-width:0.264792"
       id="rect354"
       width="130"
       height="125"
       x="0"
       y="0" /><rect
       style="fill:#245137;fill-opacity:1;stroke:#1c1c1c;stroke-width:0.495477;stroke-miterlimit:4;stroke-dasharray:none;stroke-opacity:0.848485"
       id="rect1374"
       width="69.504524"
       height="24.504524"
       x="30.247738"
       y="3.2477386" /><rect
       style="fill:#245137;fill-opacity:1;stroke:#1c1c1c;stroke-width:0.5;stroke-miterlimit:4;stroke-dasharray:none;stroke-opacity:0.848485"
       id="rect2346"
       width="129.73286"
       height="59.732861"
       x="0.13356949"
       y="31.13357" /><rect
       style="fill:#eaeaea;fill-opacity:1;stroke:#373737;stroke-width:0.389519;stroke-opacity:0.748918"
       id="rect2454"
       width="99.610481"
       height="12.610481"
       x="15.194759"
       y="100.19476" /><rect
       style="fill:#aee4eb;fill-opacity:1;stroke:#373737;stroke-width:0.264944;stroke-opacity:0.748918"
       id="rect2768"
       width="99.735054"
       height="49.735054"
       x="15.132471"
       y="36.132572" /><path
       id="path6514-4"
       style="fill:#000000;fill-opacity:1;stroke:none;stroke-width:0.272944;stroke-opacity:0.393939"
       d="m 85.952207,54 v 4.167759 h 11.034662 l 0.01313,2.831969 -0.01313,2.832524 H 85.952207 V 68 L 77,60.999728 Z" /><circle
       style="fill:#000000;fill-opacity:1;stroke:none;stroke-width:0.28725;stroke-opacity:0.393939"
       id="path6358"
       cx="65"
       cy="61.000099"
       r="8" /><path
       id="path6514"
       style="fill:#000000;fill-opacity:1;stroke:none;stroke-width:0.272945;stroke-opacity:0.393939"
       d="m 44.047798,54 v 4.167758 H 33.01315 L 33,60.999728 33.01315,63.832252 H 44.047798 V 68 l 8.952201,-7.000272 z" /><g
       id="g46734"
       transform="matrix(1.043098,0,0,1.0341327,1.4202968,0.56285455)"><rect
         style="fill:#ffffff;fill-opacity:1;stroke:none;stroke-width:0.499999;stroke-miterlimit:4;stroke-dasharray:none;stroke-opacity:0.848485"
         id="rect46517"
         width="10.989289"
         height="19.303553"
         x="66.261078"
         y="4.3270173" /><path
         id="path46727"
         style="fill:#ffffff;fill-opacity:1;stroke:none;stroke-width:0.704507;stroke-miterlimit:4;stroke-dasharray:none;stroke-opacity:0.848485"
         d="m 61.27533,4.2906933 a 2.75,2.75 0 0 0 -2.75022,2.7502185 2.75,2.75 0 0 0 0.114722,0.7839307 l -6.239413,0.1472777 -4.013192,4.3961128 1.482597,1.584916 3.450952,-3.476273 2.018999,-0.05116 -5.444113,5.700427 -5.240507,0.07648 v 2.760555 l 7.131865,0.10232 2.684074,-2.760555 2.862874,2.709395 v 4.524272 l 2.632398,-0.05116 -0.02532,-5.546948 -3.706234,-3.578077 0.408761,-0.434598 2.990515,2.734716 1.738395,-1.661397 -2.837553,-2.785876 1.814877,-1.814877 -0.04754,-0.7885817 a 2.75,2.75 0 0 0 0.973068,0.178801 2.75,2.75 0 0 0 2.749703,-2.7497015 2.75,2.75 0 0 0 -2.749703,-2.7502185 z" /></g><text
       xml:space="preserve"
       style="font-size:9.87778px;line-height:1.5;font-family:'Noto Sans';-inkscape-font-specification:'Noto Sans';text-align:center;text-anchor:middle;fill:#000000;fill-opacity:1;stroke:none;stroke-width:0.499999;stroke-miterlimit:4;stroke-dasharray:none;stroke-opacity:0.848485"
       x="65"
       y="110.03131"
       id="text49310"><tspan
         id="tspan49308"
         style="font-size:9.87778px;fill:#000000;fill-opacity:1;stroke-width:0.5"
         x="65"
         y="110.03131">NEYÐAROPNUN</tspan></text></g></svg>
