<?xml version="1.0" encoding="UTF-8" standalone="no"?>
<!-- Created with Inkscape (http://www.inkscape.org/) -->

<svg
   width="130.23288mm"
   height="125mm"
   viewBox="0 0 130.23288 125"
   version="1.1"
   id="svg5"
   xml:space="preserve"
   inkscape:version="1.2.2 (732a01da63, 2022-12-09)"
   sodipodi:docname="brunabodi.svg"
   xmlns:inkscape="http://www.inkscape.org/namespaces/inkscape"
   xmlns:sodipodi="http://sodipodi.sourceforge.net/DTD/sodipodi-0.dtd"
   xmlns="http://www.w3.org/2000/svg"
   xmlns:svg="http://www.w3.org/2000/svg"><sodipodi:namedview
     id="namedview7"
     pagecolor="#505050"
     bordercolor="#ffffff"
     borderopacity="1"
     inkscape:showpageshadow="0"
     inkscape:pageopacity="0"
     inkscape:pagecheckerboard="1"
     inkscape:deskcolor="#505050"
     inkscape:document-units="mm"
     showgrid="false"
     inkscape:zoom="0.914906"
     inkscape:cx="657.44459"
     inkscape:cy="147.55614"
     inkscape:window-width="2560"
     inkscape:window-height="1369"
     inkscape:window-x="-8"
     inkscape:window-y="-8"
     inkscape:window-maximized="1"
     inkscape:current-layer="layer1" /><defs
     id="defs2" /><g
     inkscape:label="Layer 1"
     inkscape:groupmode="layer"
     id="layer1"
     transform="translate(0.1164305)"><rect
       style="fill:#9b1e1c;fill-opacity:1;stroke-width:0.264792"
       id="rect354"
       width="130"
       height="125"
       x="0"
       y="0" /><rect
       style="fill:none;fill-opacity:1;stroke:#1c1c1c;stroke-width:0.501007;stroke-miterlimit:4;stroke-dasharray:none;stroke-opacity:0.848485"
       id="rect1374"
       width="69.498993"
       height="25.056599"
       x="30.250504"
       y="3.2505035" /><rect
       style="fill:none;fill-opacity:1;stroke:#1c1c1c;stroke-width:0.5;stroke-miterlimit:4;stroke-dasharray:none;stroke-opacity:0.848485"
       id="rect2346"
       width="129.73286"
       height="59.732861"
       x="0.13356949"
       y="31.13357" /><circle
       style="fill:#1f1f1f;fill-opacity:1;stroke:#000000;stroke-width:0.235105;stroke-opacity:0.393939"
       id="path2400"
       cx="65"
       cy="100"
       r="4.8824477" /><rect
       style="fill:#eaeaea;fill-opacity:1;stroke:#373737;stroke-width:0.265504;stroke-opacity:0.748918"
       id="rect2454"
       width="49.734497"
       height="11.734496"
       x="40.132751"
       y="109.13275" /><rect
       style="fill:#aee4eb;fill-opacity:1;stroke:#373737;stroke-width:0.264944;stroke-opacity:0.748918"
       id="rect2768"
       width="99.735054"
       height="49.735054"
       x="15.132471"
       y="36.132572" /><path
       id="path6514-4"
       style="fill:#000000;fill-opacity:1;stroke:none;stroke-width:0.272944;stroke-opacity:0.393939"
       d="m 85.952207,54 v 4.167759 h 11.034662 l 0.01313,2.831969 -0.01313,2.832524 H 85.952207 V 68 L 77,60.999728 Z" /><circle
       style="fill:#000000;fill-opacity:1;stroke:none;stroke-width:0.28725;stroke-opacity:0.393939"
       id="path6358"
       cx="65"
       cy="61.000099"
       r="8" /><path
       id="path6514"
       style="fill:#000000;fill-opacity:1;stroke:none;stroke-width:0.272945;stroke-opacity:0.393939"
       d="m 44.047798,54 v 4.167758 H 33.01315 L 33,60.999728 33.01315,63.832252 H 44.047798 V 68 l 8.952201,-7.000272 z" /><path
       id="path8067"
       style="fill:#ffffff;fill-opacity:1;stroke:none;stroke-width:0.245;stroke-opacity:0.393939"
       d="m 71.434725,5 c 0,0 -0.17846,1.9247862 -0.717216,2.8232326 -0.143458,0.2392497 -0.445013,0.6319013 -0.834666,1.1021786 L 65.118899,6.364761 62.547507,7.8703264 V 5.0470938 H 58.26154 V 10.176482 L 53.5,12.388452 54.404462,13.94111 55.785464,13.32937 V 25 h 6.095367 v -7.764723 h 1.290512 c -0.48962,1.107744 -1.105372,2.208035 -1.056842,3.157668 0.12627,2.470731 2.592731,3.103226 3.897513,3.211375 l 2.44025,-0.0029 v 1.351443 h 6.143028 V 13.37648 L 75.88099,13.988221 76.5,12.482178 73.523315,10.88195 c 0.124928,-0.797179 0.225761,-1.4732187 0.225761,-1.4732187 0,0 -0.211203,0.5934617 -0.58966,1.2777097 L 71.839544,9.9771667 C 71.955028,9.4096032 72.057183,8.8428239 72.118733,8.3555327 72.443074,5.7875973 71.434725,5 71.434725,5 Z M 59.908731,6.6920372 h 1.077754 V 8.9544289 L 60.009815,9.487204 59.908731,9.420605 Z m 5.091274,1.7905053 3.604853,1.9127575 c -0.916553,1.015117 -1.934384,2.074646 -2.668629,2.75188 -0.560059,0.516575 -1.203436,1.322846 -1.785814,2.252879 h -4.126638 v 7.953095 l -2.619045,-0.14128 V 12.388452 Z m 6.410175,3.4007245 0.630571,0.334886 c -0.595127,0.649339 -0.92757,0.837695 -0.92757,0.837695 0,0 0.12978,-0.486206 0.296999,-1.172581 z m 1.661146,1.630196 v 9.886786 h -3.117404 c 0.399462,-0.346576 1.641137,-1.127695 1.908246,-2.191991 0.348046,-1.386743 0.315287,-3.905908 0.315287,-3.905908 0,0 0.365566,-1.473433 0.868842,-3.672341 0.0075,-0.03391 0.01658,-0.07698 0.02505,-0.116546 z m -4.247933,4.762154 c 0,0 0.349479,1.613546 0.383151,2.312339 0.03372,0.698794 -0.07982,1.310532 -1.42673,1.310532 -1.346876,0 -1.04396,-0.865254 -1.090264,-1.173058 0.03791,-0.494975 0.490495,-0.696114 0.913125,-1.181142 0.391443,-0.449224 1.220718,-1.268671 1.220718,-1.268671 z"
       sodipodi:nodetypes="cscccccccccccccscccccccccccccccccccccscccccccccccccscscccscscc" /></g></svg>
